 <svg  version="1.0" xmlns="http://www.w3.org/2000/svg"  width="300.000000pt" height="82.000000pt" viewBox="0 0 300.000000 82.000000"  preserveAspectRatio="xMidYMid meet">  <g transform="translate(0.000000,82.000000) scale(0.100000,-0.100000)" fill="#d71d1d" stroke="none"> <path d="M372 552 c-17 -12 -19 -427 -1 -448 9 -11 60 -14 286 -14 170 0 282 4 294 10 18 10 19 23 19 223 0 152 -3 216 -12 225 -14 14 -564 17 -586 4z m576 -39 l3 -23 -289 0 -289 0 5 25 4 25 282 -2 281 -3 3 -22z m0 -220 l-3 -178 -280 0 -280 0 -5 178 -5 177 288 0 287 0 -2 -177z"/> <path d="M545 510 c4 -6 55 -10 121 -10 69 0 114 4 114 10 0 6 -47 10 -121 10 -77 0 -118 -4 -114 -10z"/> <path d="M650 303 c-18 -49 -35 -94 -38 -100 -2 -7 2 -13 11 -13 9 0 29 37 54 100 34 86 38 100 23 100 -13 0 -26 -24 -50 -87z"/> <path d="M545 324 c-11 -8 -27 -20 -35 -25 -13 -7 -11 -12 10 -29 44 -36 57 -41 64 -25 3 9 -5 20 -22 29 l-27 14 28 13 c15 7 26 17 24 23 -5 16 -21 16 -42 0z"/> <path d="M740 327 c0 -7 9 -18 21 -25 l20 -13 -23 -19 c-40 -32 -8 -42 34 -10 l38 28 -38 26 c-43 29 -52 32 -52 13z"/> <path d="M1100 324 c0 -111 2 -125 16 -122 14 3 17 17 16 98 -1 106 11 91 23 -30 6 -58 10 -70 23 -68 13 2 19 24 28 91 7 49 15 91 19 95 3 4 5 -36 4 -88 -2 -81 1 -95 15 -98 14 -3 16 11 16 122 l0 126 -29 0 c-29 0 -30 -2 -36 -57 -4 -32 -9 -65 -12 -73 -7 -18 -9 -13 -18 73 -6 55 -7 57 -36 57 l-29 0 0 -126z"/> <path d="M1297 368 c13 -46 23 -101 21 -123 -2 -31 1 -41 15 -43 14 -3 17 5 17 49 0 28 9 83 21 121 11 39 18 72 15 75 -14 14 -34 -9 -40 -47 -8 -49 -21 -45 -30 10 -5 30 -11 40 -25 40 -17 0 -17 -4 6 -82z"/> <path d="M1480 325 c0 -104 2 -125 15 -125 10 0 15 10 15 30 0 25 4 30 24 30 30 0 36 16 36 95 0 73 -14 95 -61 95 l-29 0 0 -125z m55 25 c0 -42 -4 -65 -12 -67 -10 -4 -13 14 -13 67 0 53 3 71 13 68 8 -3 12 -26 12 -68z"/> <path d="M1608 439 c-15 -8 -18 -26 -18 -115 0 -102 1 -105 25 -116 21 -9 28 -8 45 7 17 16 20 31 20 110 0 76 -3 95 -18 108 -21 19 -30 20 -54 6z m40 -117 c-4 -107 -22 -112 -26 -8 -3 86 2 116 19 99 5 -5 9 -46 7 -91z"/> <path d="M1771 396 c-28 -28 -51 -56 -51 -62 0 -6 11 -21 24 -33 30 -28 44 -22 105 44 33 35 41 51 36 68 l-7 22 23 -22 23 -23 -38 -39 c-26 -27 -36 -43 -30 -53 5 -7 9 -19 11 -27 1 -8 15 -28 31 -44 31 -31 57 -32 69 -2 7 20 -55 88 -74 81 -27 -11 -20 13 12 44 19 19 35 39 35 45 0 23 -45 52 -81 52 -31 1 -44 -7 -88 -51z m90 18 c11 -13 5 -23 -39 -66 -43 -44 -53 -50 -66 -39 -23 19 -21 24 27 73 47 50 59 55 78 32z m83 -186 c-4 -5 -19 3 -35 18 -15 15 -26 31 -23 36 4 5 19 -3 35 -18 15 -15 26 -31 23 -36z"/> <path d="M2000 429 c0 -17 5 -20 25 -17 l25 5 0 -108 c0 -90 3 -109 15 -109 12 0 15 19 15 109 0 104 1 109 20 104 15 -4 20 0 20 16 0 19 -6 21 -60 21 -54 0 -60 -2 -60 -21z"/> <path d="M2140 335 c0 -63 0 -118 -1 -122 0 -5 7 -9 15 -11 13 -3 16 8 16 62 0 64 1 66 25 66 16 0 25 6 25 15 0 9 -9 15 -25 15 -21 0 -25 5 -25 28 0 23 4 28 22 28 14 -1 24 6 26 17 3 14 -4 17 -37 17 l-41 0 0 -115z"/> <path d="M2246 428 c-24 -34 -22 -178 3 -209 16 -21 22 -22 45 -11 26 11 26 13 26 116 0 94 -2 106 -19 116 -28 15 -38 13 -55 -12z m42 -106 c-4 -107 -22 -112 -26 -8 -3 86 2 116 19 99 5 -5 9 -46 7 -91z"/> <path d="M2340 326 l0 -126 40 0 c32 0 40 4 40 19 0 14 -6 17 -26 13 l-25 -5 2 109 c1 94 -1 109 -15 112 -14 3 -16 -11 -16 -122z"/> <path d="M2434 434 c3 -9 6 -65 6 -125 0 -90 3 -109 15 -109 13 0 15 21 15 125 0 120 -1 125 -21 125 -15 0 -19 -4 -15 -16z"/> <path d="M2508 439 c-15 -8 -18 -26 -18 -115 0 -103 0 -105 26 -116 23 -11 29 -10 45 11 15 18 19 40 19 105 0 108 -23 144 -72 115z m40 -117 c-4 -107 -22 -112 -26 -8 -3 86 2 116 19 99 5 -5 9 -46 7 -91z"/> </g> </svg> 